<svg height="60px" width="60px" version="1.1" xmlns="http://www.w3.org/2000/svg" xmlns:xlink="http://www.w3.org/1999/xlink" viewBox="0 0 4.8 4.8" xml:space="preserve">
  <style type="text/css">
    .st0{fill:#E0E0D1;}
	.st1{opacity:0.2;}
	.st2{fill:#231F20;}
	.st3{fill:#C75C5C;}
	.st4{fill:#4F5D73;}
  </style>
  <g id="Layer_1">
    <g>
      <path class="st0" cx="32" cy="32" r="32" d="M4.8 2.4A2.4 2.4 0 0 1 2.4 4.8A2.4 2.4 0 0 1 0 2.4A2.4 2.4 0 0 1 4.8 2.4z"/>
    </g>
    <g class="st1">
      <path class="st2" d="M2.4 1.2c0.743 0 1.35 0.607 1.35 1.35s-0.607 1.35 -1.35 1.35 -1.35 -0.607 -1.35 -1.35 0.607 -1.35 1.35 -1.35m0 -0.3c-0.915 0 -1.65 0.735 -1.65 1.65s0.735 1.65 1.65 1.65 1.65 -0.735 1.65 -1.65 -0.735 -1.65 -1.65 -1.65"/>
    </g>
    <g>
      <path class="st3" d="M2.4 1.05c0.743 0 1.35 0.607 1.35 1.35s-0.607 1.35 -1.35 1.35 -1.35 -0.607 -1.35 -1.35 0.607 -1.35 1.35 -1.35m0 -0.3c-0.915 0 -1.65 0.735 -1.65 1.65s0.735 1.65 1.65 1.65 1.65 -0.735 1.65 -1.65 -0.735 -1.65 -1.65 -1.65"/>
    </g>
    <g class="st1">
      <g>
        <path class="st2" d="M3 3.3c-0.037 0 -0.075 -0.015 -0.105 -0.045L2.25 2.61V1.95c0 -0.083 0.068 -0.15 0.15 -0.15s0.15 0.068 0.15 0.15v0.54l0.555 0.555c0.06 0.06 0.06 0.15 0 0.21 -0.03 0.03 -0.068 0.045 -0.105 0.045"/>
      </g>
    </g>
    <g>
      <path class="st4" d="M3 3.15c-0.037 0 -0.075 -0.015 -0.105 -0.045L2.25 2.46V1.8c0 -0.083 0.068 -0.15 0.15 -0.15s0.15 0.068 0.15 0.15v0.54l0.555 0.555c0.06 0.06 0.06 0.15 0 0.21 -0.03 0.03 -0.068 0.045 -0.105 0.045"/>
    </g>
  </g>
  <g id="Layer_2"/>
</svg>
