<svg width="50px" height="50px" viewBox="0 0 4.5 4.5" xmlns="http://www.w3.org/2000/svg" xmlns:xlink="http://www.w3.org/1999/xlink" aria-hidden="true" role="img" class="iconify iconify--fxemoji" preserveAspectRatio="xMidYMid meet">
  <path fill="#597B91" d="M3.1 3.5C3.1 3.3 3.07 3.25 2.86 3.23Q2.8 3.23 2.8 3.16v-0.1Q2.8 3.01 2.84 3A1 1 0 0 0 3.28 2.17L3.29 2.13Q3.31 2.08 3.35 2.07A0.2 0.2 0 0 0 3.53 1.9C3.56 1.77 3.47 1.66 3.35 1.63L3.32 1.59l0.03 -0.4C3.36 -0.34 1.14 -0.36 1.13 1.16L1.17 1.6q0 0.03 -0.03 0.04A0.23 0.23 0 0 0 1 1.91q0.04 0.12 0.19 0.16 0.06 0.02 0.06 0.07v0.04a1 1 0 0 0 0.46 0.84l0.02 0.03v0.13a0.1 0.1 0 0 1 -0.06 0.06C1.44 3.25 1.42 3.31 1.41 3.5L1.39 3.53C1.01 3.69 0.74 3.91 0.75 4.46q0 0.05 0.06 0.06H3.7A0.1 0.1 0 0 0 3.76 4.46C3.77 3.92 3.5 3.71 3.13 3.55L3.1 3.52"/>
</svg>
