<svg fill="#ac81d3" xmlns="http://www.w3.org/2000/svg" width="20px" height="20px" viewBox="0 0 2.6 2.6" enable-background="new 0 0 52 52" xml:space="preserve">
  <g>
    <path d="M2.3 1.65h-0.025c-0.095 0 -0.175 -0.08 -0.175 -0.175V0.9c0 -0.455 -0.38 -0.82 -0.84 -0.8C0.83 0.12 0.5 0.49 0.5 0.925v0.555c0 0.095 -0.08 0.17 -0.175 0.17H0.3c-0.11 0 -0.2 0.095 -0.2 0.205v0.075c0 0.035 0.035 0.07 0.075 0.07h2.25c0.04 0 0.075 -0.035 0.075 -0.075V1.85c0 -0.11 -0.09 -0.2 -0.2 -0.2"/>
    <path d="M1.545 2.2h-0.49c-0.03 0 -0.055 0.03 -0.05 0.06 0.025 0.14 0.15 0.24 0.295 0.24s0.27 -0.105 0.295 -0.24c0.005 -0.03 -0.02 -0.06 -0.05 -0.06"/>
  </g>
</svg>
