<svg width="60px" height="60px" viewBox="0 0 25.6 25.6" xmlns="http://www.w3.org/2000/svg" xmlns:xlink="http://www.w3.org/1999/xlink" aria-hidden="true" role="img" class="iconify iconify--fxemoji" preserveAspectRatio="xMidYMid meet">
  <path fill="#FFB636" d="m12.625 19.05 -6.4 2.45c-0.295 0.11 -0.605 -0.115 -0.59 -0.43l0.35 -6.845c0.005 -0.105 -0.03 -0.21 -0.095 -0.295L1.58 8.6c-0.2 -0.245 -0.08 -0.61 0.225 -0.695l6.62 -1.78c0.105 -0.03 0.195 -0.095 0.25 -0.185L12.415 0.2c0.17 -0.265 0.56 -0.265 0.73 0l3.74 5.745c0.06 0.09 0.15 0.155 0.25 0.185l6.62 1.78c0.305 0.08 0.425 0.45 0.225 0.695l-4.305 5.33c-0.065 0.085 -0.1 0.19 -0.095 0.295l0.35 6.845c0.015 0.315 -0.295 0.54 -0.59 0.43l-6.4 -2.45c-0.105 -0.04 -0.215 -0.04 -0.315 -0.005"/>
  <path fill="#FFD469" d="m22.805 2.585 -2.05 -2.05c-0.06 -0.06 -0.14 -0.085 -0.22 -0.075s-0.155 0.06 -0.195 0.13l-2.115 4.165c-0.06 0.105 -0.04 0.23 0.045 0.315 0.05 0.05 0.12 0.075 0.185 0.075 0.045 0 0.09 -0.01 0.13 -0.035L22.745 3c0.07 -0.04 0.12 -0.11 0.13 -0.195 0.015 -0.08 -0.015 -0.16 -0.07 -0.22"/>
  <path fill="#FFD469" d="m7.455 4.76 -2.115 -4.165c-0.04 -0.07 -0.11 -0.12 -0.195 -0.13 -0.08 -0.01 -0.165 0.015 -0.22 0.075l-2.05 2.05c-0.06 0.06 -0.085 0.14 -0.075 0.22s0.06 0.155 0.13 0.195l4.165 2.115c0.04 0.025 0.085 0.035 0.13 0.035 0.07 0 0.135 -0.025 0.185 -0.075 0.085 -0.09 0.1 -0.22 0.045 -0.32"/>
  <path fill="#FFD469" d="m14.49 25.26 -1.45 -4.44c-0.01 -0.045 -0.035 -0.085 -0.065 -0.115 -0.05 -0.05 -0.115 -0.075 -0.185 -0.075 -0.12 0 -0.22 0.08 -0.255 0.195l-1.45 4.44c-0.02 0.08 -0.005 0.165 0.045 0.23s0.125 0.105 0.21 0.105h2.895c0.08 0 0.16 -0.04 0.21 -0.105 0.055 -0.07 0.07 -0.155 0.045 -0.235"/>
</svg>
