<svg width="60px" height="60px" viewBox="0 0 76.8 76.8" class="icon" version="1.1" xmlns="http://www.w3.org/2000/svg">
  <path d="M38.392 69.641c17.216 0 31.173 -13.957 31.173 -31.173 0 -17.216 -13.957 -31.173 -31.173 -31.173 -17.216 0 -31.172 13.956 -31.172 31.173S21.176 69.641 38.392 69.641" fill="#FFF200"/>
  <path d="m32.743 53.053 24.78 -24.779c0.413 -0.413 0.643 -0.96 0.647 -1.541 0.004 -0.589 -0.222 -1.143 -0.638 -1.559 0 -0.001 0 0 0 0l0 0c-0.406 -0.406 -0.973 -0.637 -1.552 -0.635 -0.586 0.002 -1.135 0.231 -1.548 0.643L31.248 48.367l-7.125 -7.125c-0.413 -0.413 -0.963 -0.641 -1.548 -0.644h-0.009c-0.577 0 -1.139 0.231 -1.543 0.635 -0.852 0.852 -0.848 2.242 0.009 3.099L29.277 52.577a2.175 2.175 0 0 0 0.366 0.486c0.424 0.424 0.982 0.636 1.541 0.636a2.199 2.199 0 0 0 1.558 -0.645m5.649 -45.757c-17.216 0 -31.173 13.956 -31.173 31.173S21.176 69.641 38.392 69.641s31.173 -13.956 31.173 -31.173S55.608 7.296 38.392 7.296m0 3.072c3.795 0 7.475 0.743 10.937 2.207 3.346 1.415 6.351 3.442 8.933 6.023 2.582 2.582 4.608 5.587 6.023 8.933 1.464 3.462 2.207 7.142 2.207 10.937s-0.743 7.475 -2.207 10.937c-1.415 3.346 -3.442 6.351 -6.023 8.933s-5.587 4.608 -8.933 6.023c-3.462 1.465 -7.142 2.207 -10.937 2.207s-7.475 -0.743 -10.937 -2.207c-3.346 -1.415 -6.351 -3.442 -8.933 -6.023 -2.582 -2.582 -4.608 -5.587 -6.023 -8.933 -1.464 -3.462 -2.207 -7.142 -2.207 -10.937s0.743 -7.475 2.207 -10.937c1.415 -3.346 3.442 -6.351 6.023 -8.933s5.587 -4.608 8.933 -6.023c3.462 -1.465 7.142 -2.207 10.937 -2.207" fill="#000000"/>
</svg>
